# xmcd CD database file
#
# Track frame offsets:
#	150
#	21795
#	44543
#
# Disc length: 880 seconds
#
# Revision: 0
# Processed by: cddbd v1.5.1PL0 Copyright (c) Steve Scherf et al.
# Submitted via: CDex 1.51
#
DISCID=1e036e03
DTITLE=KOKIA - dandelion
DYEAR=2005
DGENRE=JPop
TTITLE0=dandelion
TTITLE1=僕の気持ち
TTITLE2=dandelion(Instrumental Version)
EXTD=YEAR: 2005
EXTT0=
EXTT1=
EXTT2=
PLAYORDER=
